<?xml version="1.0" encoding="UTF-8" standalone="no"?>
<svg
   xmlns:dc="http://purl.org/dc/elements/1.1/"
   xmlns:cc="http://creativecommons.org/ns#"
   xmlns:rdf="http://www.w3.org/1999/02/22-rdf-syntax-ns#"
   xmlns:svg="http://www.w3.org/2000/svg"
   xmlns="http://www.w3.org/2000/svg"
   xmlns:sodipodi="http://sodipodi.sourceforge.net/DTD/sodipodi-0.dtd"
   xmlns:inkscape="http://www.inkscape.org/namespaces/inkscape"
   version="1.1"
   width="48"
   height="48"
   viewBox="0 0 48 48"
   id="svg2"
   inkscape:version="0.91 r13725"
   sodipodi:docname="github-circle.svg"
   inkscape:export-filename="/home/alex/Pictures/icons/wikipage/github-circle.png"
   inkscape:export-xdpi="360"
   inkscape:export-ydpi="360">
  <metadata
     id="metadata10">
    <rdf:RDF>
      <cc:Work
         rdf:about="">
        <dc:format>image/svg+xml</dc:format>
        <dc:type
           rdf:resource="http://purl.org/dc/dcmitype/StillImage" />
        <dc:title></dc:title>
      </cc:Work>
    </rdf:RDF>
  </metadata>
  <defs
     id="defs8">
    <filter
       style="color-interpolation-filters:sRGB;"
       inkscape:label="Drop Shadow"
       id="filter4144">
      <feFlood
         flood-opacity="0.247059"
         flood-color="rgb(0,0,0)"
         result="flood"
         id="feFlood4146" />
      <feComposite
         in="flood"
         in2="SourceGraphic"
         operator="in"
         result="composite1"
         id="feComposite4148" />
      <feGaussianBlur
         in="composite1"
         stdDeviation="2"
         result="blur"
         id="feGaussianBlur4150" />
      <feOffset
         dx="0"
         dy="0"
         result="offset"
         id="feOffset4152" />
      <feComposite
         in="SourceGraphic"
         in2="offset"
         operator="over"
         result="fbSourceGraphic"
         id="feComposite4154" />
      <feColorMatrix
         result="fbSourceGraphicAlpha"
         in="fbSourceGraphic"
         values="0 0 0 -1 0 0 0 0 -1 0 0 0 0 -1 0 0 0 0 1 0"
         id="feColorMatrix4156" />
      <feFlood
         id="feFlood4158"
         flood-opacity="0.247059"
         flood-color="rgb(0,0,0)"
         result="flood"
         in="fbSourceGraphic" />
      <feComposite
         id="feComposite4160"
         in2="fbSourceGraphic"
         in="flood"
         operator="in"
         result="composite1" />
      <feGaussianBlur
         id="feGaussianBlur4162"
         in="composite1"
         stdDeviation="2"
         result="blur" />
      <feOffset
         id="feOffset4164"
         dx="0"
         dy="2"
         result="offset" />
      <feComposite
         id="feComposite4166"
         in2="offset"
         in="fbSourceGraphic"
         operator="over"
         result="composite2" />
    </filter>
  </defs>
  <sodipodi:namedview
     pagecolor="#ffffff"
     bordercolor="#666666"
     borderopacity="1"
     objecttolerance="10"
     gridtolerance="10"
     guidetolerance="10"
     inkscape:pageopacity="0"
     inkscape:pageshadow="2"
     inkscape:window-width="1600"
     inkscape:window-height="842"
     id="namedview6"
     showgrid="true"
     inkscape:showpageshadow="false"
     showguides="true"
     inkscape:guide-bbox="true"
     inkscape:snap-center="true"
     inkscape:zoom="9.8333333"
     inkscape:cx="29.407077"
     inkscape:cy="18.11973"
     inkscape:window-x="0"
     inkscape:window-y="27"
     inkscape:window-maximized="1"
     inkscape:current-layer="svg2">
    <inkscape:grid
       type="xygrid"
       id="grid4138"
       empspacing="4" />
    <sodipodi:guide
       position="24,24"
       orientation="0,1"
       id="guide4140" />
    <sodipodi:guide
       position="24,24"
       orientation="1,0"
       id="guide4142" />
  </sodipodi:namedview>
  <path
     d="M 24,4.4845107 A 20,20 0 0 0 4,24.48451 c 0,8.84 5.74,16.34 13.68,19 1,0.16 1.32,-0.46 1.32,-1 0,-0.46 0,-1.72 0,-3.38 -5.54,1.2 -6.72,-2.68 -6.72,-2.68 -0.92,-2.32 -2.22,-2.94 -2.22,-2.94 -1.82,-1.24 0.14,-1.2 0.14,-1.2 2,0.14 3.06,2.06 3.06,2.06 1.74,3.04 4.68,2.14 5.82,1.66 0.18,-1.3 0.7,-2.18 1.26,-2.68 -4.44,-0.5 -9.1,-2.22 -9.1,-9.84 0,-2.22 0.76,-4 2.06,-5.42 -0.2,-0.5 -0.9,-2.58 0.2,-5.28 0,0 1.68,-0.54 5.5,2.04 1.58,-0.44 3.3,-0.66 5,-0.66 1.7,0 3.42,0.22 5,0.66 3.82,-2.58 5.5,-2.04 5.5,-2.04 1.1,2.7 0.4,4.78 0.2,5.28 1.3,1.42 2.06,3.2 2.06,5.42 0,7.64 -4.68,9.32 -9.14,9.82 0.72,0.62 1.38,1.84 1.38,3.7 0,2.68 0,4.84 0,5.48 0,0.54 0.32,1.18 1.34,1 7.94,-2.68 13.66,-10.16 13.66,-19 A 20,20 0 0 0 24,4.4845107 Z"
     id="path4"
     inkscape:connector-curvature="0"
     style="fill:#dd4814;fill-opacity:1;filter:url(#filter4144)" />
</svg>
