<?xml version="1.0" encoding="UTF-8" standalone="no"?>
<svg
   xmlns:dc="http://purl.org/dc/elements/1.1/"
   xmlns:cc="http://creativecommons.org/ns#"
   xmlns:rdf="http://www.w3.org/1999/02/22-rdf-syntax-ns#"
   xmlns:svg="http://www.w3.org/2000/svg"
   xmlns="http://www.w3.org/2000/svg"
   xmlns:sodipodi="http://sodipodi.sourceforge.net/DTD/sodipodi-0.dtd"
   xmlns:inkscape="http://www.inkscape.org/namespaces/inkscape"
   height="48"
   viewBox="0 0 48 48"
   width="48"
   id="svg2"
   version="1.1"
   inkscape:version="0.91 r13725"
   sodipodi:docname="irc.svg"
   inkscape:export-filename="/home/alex/Pictures/icons/wikipage/irc.png"
   inkscape:export-xdpi="360"
   inkscape:export-ydpi="360"
   style="fill:#ffffff">
  <metadata
     id="metadata12">
    <rdf:RDF>
      <cc:Work
         rdf:about="">
        <dc:format>image/svg+xml</dc:format>
        <dc:type
           rdf:resource="http://purl.org/dc/dcmitype/StillImage" />
        <dc:title></dc:title>
      </cc:Work>
    </rdf:RDF>
  </metadata>
  <defs
     id="defs10">
    <filter
       style="color-interpolation-filters:sRGB"
       inkscape:label="Drop Shadow"
       id="filter4158">
      <feFlood
         flood-opacity="0.247059"
         flood-color="rgb(33,33,33)"
         result="flood"
         id="feFlood4160" />
      <feComposite
         in="flood"
         in2="SourceGraphic"
         operator="in"
         result="composite1"
         id="feComposite4162" />
      <feGaussianBlur
         in="composite1"
         stdDeviation="1"
         result="blur"
         id="feGaussianBlur4164" />
      <feOffset
         dx="0"
         dy="0"
         result="offset"
         id="feOffset4166" />
      <feComposite
         in="SourceGraphic"
         in2="offset"
         operator="over"
         result="fbSourceGraphic"
         id="feComposite4168" />
      <feColorMatrix
         result="fbSourceGraphicAlpha"
         in="fbSourceGraphic"
         values="0 0 0 -1 0 0 0 0 -1 0 0 0 0 -1 0 0 0 0 1 0"
         id="feColorMatrix4170" />
      <feFlood
         id="feFlood4172"
         flood-opacity="0.247059"
         flood-color="rgb(33,33,33)"
         result="flood"
         in="fbSourceGraphic" />
      <feComposite
         id="feComposite4174"
         in2="fbSourceGraphic"
         in="flood"
         operator="in"
         result="composite1" />
      <feGaussianBlur
         id="feGaussianBlur4176"
         in="composite1"
         stdDeviation="1"
         result="blur" />
      <feOffset
         id="feOffset4178"
         dx="0"
         dy="1"
         result="offset" />
      <feComposite
         id="feComposite4180"
         in2="offset"
         in="fbSourceGraphic"
         operator="over"
         result="composite2" />
    </filter>
  </defs>
  <sodipodi:namedview
     pagecolor="#ffffff"
     bordercolor="#666666"
     borderopacity="1"
     objecttolerance="10"
     gridtolerance="10"
     guidetolerance="10"
     inkscape:pageopacity="0"
     inkscape:pageshadow="2"
     inkscape:window-width="1600"
     inkscape:window-height="842"
     id="namedview8"
     showgrid="true"
     inkscape:object-nodes="false"
     inkscape:snap-grids="true"
     inkscape:zoom="11.313709"
     inkscape:cx="9.3527564"
     inkscape:cy="26.544598"
     inkscape:window-x="0"
     inkscape:window-y="27"
     inkscape:window-maximized="1"
     inkscape:current-layer="svg2"
     inkscape:showpageshadow="false"
     inkscape:snap-page="false"
     inkscape:snap-bbox="true"
     inkscape:bbox-nodes="false"
     inkscape:snap-center="true"
     showguides="true"
     inkscape:guide-bbox="true">
    <inkscape:grid
       type="xygrid"
       id="grid4148"
       empspacing="4" />
    <sodipodi:guide
       position="24,24"
       orientation="1,0"
       id="guide3347" />
    <sodipodi:guide
       position="24,24"
       orientation="0,1"
       id="guide3349" />
  </sodipodi:namedview>
  <path
     style="fill:#dd4814;fill-opacity:1;stroke:none;filter:url(#filter4158)"
     d="m 4,26 c -1.1,0 -2,0.9 -2,2 l 0,18 4,-4 14,0 c 1.1,0 2,-0.9 2,-2 l 0,-12 c 0,-1.1 -0.9,-2 -2,-2 L 4,26 Z m 5,3 2,0 0,2 2,0 0,-2 2,0 0,2 2,0 0,2 -2,0 0,2 2,0 0,2 -2,0 0,2 -2,0 0,-2 -2,0 0,2 -2,0 0,-2 -2,0 0,-2 2,0 0,-2 -2,0 0,-2 2,0 0,-2 z m 2,4 0,2 2,0 0,-2 -2,0 z"
     id="path4"
     inkscape:connector-curvature="0"
     transform="matrix(2,0,0,2,0,-48)" />
  <path
     d="m 0,24 24,0 0,24 -24,0 z"
     id="path6"
     inkscape:connector-curvature="0"
     style="fill:none" />
</svg>
